{"title":"The Flash S01E01 480p Pre-Air WEBRip x264 AAC [GWC].mp4","uid":10427863,"size":137427361,"categoryP":"video","categoryS":"tv_shows","magnet":"?xt=urn:btih:c15e4c45c536dbca119a6d5b24c4f307da55dc4d&amp;dn=The+Flash+S01E01+480p+Pre-Air+WEBRip+x264+AAC+%5BGWC%5D.mp4&amp;tr=udp%3A%2F%2Ftracker.openbittorrent.com%3A80&amp;tr=udp%3A%2F%2Fopen.demonii.com%3A1337&amp;tr=udp%3A%2F%2Ftracker.coppersurfer.tk%3A6969&amp;tr=udp%3A%2F%2Fexodus.desync.com%3A6969","seeders":30,"leechers":0,"uploader":"canc232","files":1,"time":1403727217,"description":"The Flash S01E01 480p Pre-Air WEBRip x264 AAC [GWC]\n\n\n\nSTORYLINE :\nThe show centered around scientist Barry Allen, who suffers a freak accident that turns him into a superhero with the power of incredible speed.\n\n\n\nSCREENS : &lt;a href=&quot;\nhttp://i.imgur.com/2zcKmJN.png&quot; rel=&quot;nofollow&quot; target=&quot;_NEW&quot;&gt;\nhttp://i.imgur.com/2zcKmJN.png&lt;/a&gt; &lt;a href=&quot;\nhttp://i.imgur.com/XMeExB6.png&quot; rel=&quot;nofollow&quot; target=&quot;_NEW&quot;&gt;\nhttp://i.imgur.com/XMeExB6.png&lt;/a&gt; &lt;a href=&quot;\nhttp://i.imgur.com/ZLMDXpF.png&quot; rel=&quot;nofollow&quot; target=&quot;_NEW&quot;&gt;\nhttp://i.imgur.com/ZLMDXpF.png&lt;/a&gt; &lt;a href=&quot;\nhttp://i.imgur.com/lnV5lCX.png&quot; rel=&quot;nofollow&quot; target=&quot;_NEW&quot;&gt;\nhttp://i.imgur.com/lnV5lCX.png&lt;/a&gt;\n\n\n\nMEDIA INFO :\nGeneral \nFormat : MPEG-4 \nFormat profile : Base Media \nFile size : 131 MiB \nDuration : 46mn 50s \nOverall bit rate mode : Variable \nOverall bit rate : 391 Kbps \n\nVideo \nFormat : AVC \nFormat profile : &lt;a class=&quot;__cf_email__&quot; href=&quot;/cdn-cgi/l/email-protection&quot; data-cfemail=&quot;e7af8e808fa7abd4c9d6&quot;&gt;[email&amp;#160;protected]&lt;/a&gt;&lt;script cf-hash='f9e31' type=&quot;text/javascript&quot;&gt;\n/* &lt;![CDATA[ */!function(){try{var t=&quot;currentScript&quot;in document?document.currentScript:function(){for(var t=document.getElementsByTagName(&quot;script&quot;),e=t.length;e--;)if(t[e].getAttribute(&quot;cf-hash&quot;))return t[e]}();if(t&amp;&amp;t.previousSibling){var e,r,n,i,c=t.previousSibling,a=c.getAttribute(&quot;data-cfemail&quot;);if(a){for(e=&quot;&quot;,r=parseInt(a.substr(0,2),16),n=2;a.length-n;n+=2)i=parseInt(a.substr(n,2),16)^r,e+=String.fromCharCode(i);e=document.createTextNode(e),c.parentNode.replaceChild(e,c)}}}catch(u){}}();/* ]]&gt; */&lt;/script&gt; \nFormat settings, CABAC : Yes \nFormat settings, ReFrames : 5 frames \nDuration : 46mn 50s \nBit rate : 340 Kbps \nMaximum bit rate : 2 244 Kbps \nWidth : 720 pixels \nHeight : 482 pixels \nDisplay aspect ratio : 16:9 \nFrame rate : 29.970 fps \nStream size : 114 MiB (87%) \nTitle : The Flash S01E01 WEBRip x264 AAC [GWC] \nWriting library : x264 core \n\nAudio \nFormat : AAC \nFormat profile : HE-AAC / LC \nDuration : 46mn 50s \nBit rate mode : Variable \nChannel(s) : 2 channels \nSampling rate : 48.0 KHz / 24.0 KHz \nStream size : 15.9 MiB (12%) \nLanguage : English ","torrent":{"xt":"urn:btih:c15e4c45c536dbca119a6d5b24c4f307da55dc4d","amp;dn":"The+Flash+S01E01+480p+Pre-Air+WEBRip+x264+AAC+%5BGWC%5D.mp4","amp;tr":["udp%3A%2F%2Ftracker.openbittorrent.com%3A80","udp%3A%2F%2Fopen.demonii.com%3A1337","udp%3A%2F%2Ftracker.coppersurfer.tk%3A6969","udp%3A%2F%2Fexodus.desync.com%3A6969"],"infoHash":"c15e4c45c536dbca119a6d5b24c4f307da55dc4d","infoHashBuffer":{"type":"Buffer","data":[193,94,76,69,197,54,219,202,17,154,109,91,36,196,243,7,218,85,220,77]},"announce":[],"urlList":[]}}